Coordinates
version=1
nRows=60
nColumns=12
inDegrees=yes

Units are S.I. units (second, meters, Newtons, ...)
Angles are in degrees

endheader
time	SC_y	SC_z	SC_x	AC_y	AC_z	AC_x	GH_y	GH_z	GH_yy	EL_x	PS_y
       0.0              -44.85          33.62          2.907          68.32          1.353         -7.485         -156.1         -13.08          67.04          59.89          50.26
   0.03362              -44.85          33.61          2.911          68.32          1.353         -7.486         -156.1         -13.08          67.01          59.91          50.26
   0.06724              -44.85          33.61          2.916          68.32          1.354         -7.486         -156.1         -13.07          66.97          59.92          50.27
    0.1009              -44.85          33.61           2.92          68.32          1.354         -7.487         -156.1         -13.07          66.94          59.93          50.28
    0.1345              -44.84          33.61          2.925          68.31          1.355         -7.488         -156.1         -13.06           66.9          59.94          50.29
    0.1681              -44.84          33.61           2.93          68.31          1.355         -7.488         -156.1         -13.06          66.86          59.96           50.3
    0.2017              -44.84          33.61          2.935          68.31          1.356         -7.489         -156.1         -13.05          66.81          59.97          50.32
    0.2353              -44.84          33.61          2.941          68.31          1.357          -7.49         -156.1         -13.04          66.77          59.99          50.33
    0.2689              -44.83          33.61          2.947          68.31          1.358          -7.49         -156.1         -13.03          66.72           60.0          50.34
    0.3026              -44.83           33.6          2.954           68.3          1.359         -7.491         -156.1         -13.03          66.66          60.02          50.36
    0.3362              -44.82           33.6          2.961           68.3           1.36         -7.492         -156.1         -13.02          66.61          60.04          50.37
    0.3698              -44.82           33.6          2.969           68.3          1.361         -7.493         -156.1         -13.01          66.54          60.06          50.39
    0.4034              -44.82           33.6          2.977          68.29          1.362         -7.494         -156.1          -13.0          66.48          60.09          50.41
     0.437              -44.81          33.59          2.986          68.29          1.363         -7.495         -156.1         -12.99           66.4          60.11          50.42
    0.4706               -44.8          33.59          2.996          68.29          1.364         -7.496         -156.1         -12.97          66.33          60.14          50.45
    0.5043               -44.8          33.59          3.007          68.28          1.365         -7.497         -156.1         -12.96          66.24          60.17          50.47
    0.5379              -44.79          33.59          3.018          68.28          1.367         -7.499         -156.1         -12.95          66.15           60.2          50.49
    0.5715              -44.79          33.58          3.031          68.27          1.369           -7.5         -156.1         -12.93          66.05          60.23          50.52
    0.6051              -44.78          33.58          3.044          68.27           1.37         -7.502         -156.1         -12.91          65.94          60.27          50.55
    0.6387              -44.77          33.58          3.059          68.26          1.372         -7.504         -156.1         -12.89          65.82          60.31          50.58
    0.6724              -44.76          33.57          3.076          68.25          1.374         -7.506         -156.1         -12.87          65.69          60.35          50.62
     0.706              -44.75          33.57          3.094          68.25          1.377         -7.508         -156.2         -12.85          65.54           60.4          50.66
    0.7396              -44.74          33.56          3.114          68.24          1.379          -7.51         -156.2         -12.82          65.38          60.46           50.7
    0.7732              -44.73          33.55          3.136          68.23          1.382         -7.513         -156.2          -12.8          65.21          60.52          50.75
    0.8068              -44.71          33.55           3.16          68.22          1.385         -7.516         -156.2         -12.77          65.01          60.59           50.8
    0.8404               -44.7          33.54          3.188          68.21          1.389         -7.519         -156.2         -12.73          64.79          60.66          50.86
    0.8741              -44.68          33.53          3.219           68.2          1.393         -7.523         -156.2         -12.69          64.54          60.74          50.92
    0.9077              -44.66          33.52          3.253          68.18          1.398         -7.527         -156.2         -12.65          64.27          60.84           51.0
    0.9413              -44.64          33.51          3.292          68.17          1.403         -7.532         -156.2          -12.6          63.95          60.95          51.08
    0.9749              -44.61           33.5          3.337          68.15          1.408         -7.537         -156.3         -12.54           63.6          61.07          51.18
     1.009              -44.59          33.49          3.387          68.13          1.415         -7.543         -156.3         -12.48          63.19           61.2          51.28
     1.042              -44.55          33.47          3.445          68.11          1.423          -7.55         -156.3         -12.41          62.73          61.36          51.41
     1.076              -44.52          33.45          3.512          68.08          1.431         -7.559         -156.3         -12.32          62.19          61.55          51.55
     1.109              -44.47          33.43           3.59          68.05          1.441         -7.568         -156.4         -12.22          61.56          61.76          51.72
     1.143              -44.42          33.41          3.681          68.02          1.453         -7.579         -156.4         -12.11          60.83          62.01          51.92
     1.177              -44.36          33.38          3.789          67.97          1.467         -7.592         -156.5         -11.97          59.97           62.3          52.15
      1.21              -44.29          33.35          3.917          67.92          1.484         -7.607         -156.5         -11.81          58.95          62.65          52.42
     1.244               -44.2           33.3           4.07          67.86          1.504         -7.626         -156.6         -11.62          57.72          63.07          52.75
     1.277               -44.1          33.25          4.255          67.79          1.528         -7.648         -156.6         -11.38          56.23          63.57          53.15
     1.311              -43.97          33.19          4.481           67.7          1.557         -7.676         -156.7          -11.1          54.42          64.19          53.63
     1.345              -43.82          33.12          4.761          67.59          1.594         -7.709         -156.9         -10.75          52.18          64.95          54.23
     1.378              -43.62          33.03          5.109          67.45          1.639         -7.752         -157.0         -10.31          49.39           65.9          54.98
     1.412              -43.38          32.91          5.548          67.28          1.696         -7.805         -157.2         -9.753          45.87           67.1          55.92
     1.446              -43.06          32.76          6.105          67.06          1.769         -7.872         -157.4         -9.049           41.4          68.62          57.12
     1.479              -42.66          32.57          6.819          66.78          1.862         -7.958         -157.7         -8.148          35.68          70.57          58.65
     1.513              -42.15          32.32          7.735          66.42          1.981         -8.069         -158.1         -6.992          28.33          73.07          60.62
     1.546              -41.49          32.01          8.906          65.96          2.133          -8.21         -158.6         -5.515          18.95          76.27          63.13
      1.58              -40.67          31.61          10.38          65.38          2.324         -8.388         -159.2         -3.658          7.157          80.28          66.29
     1.614              -39.67          31.13          12.17          64.67          2.558         -8.605         -160.0         -1.395         -7.218          85.18          70.14
     1.647               -38.5          30.58          14.25          63.85          2.828         -8.856         -160.9          1.227         -23.88          90.85           74.6
     1.681              -37.24          29.97           16.5          62.96          3.121         -9.128         -161.8          4.068         -41.92          96.99          79.43
     1.715              -35.98          29.37          18.75          62.08          3.414           -9.4         -162.8          6.908         -59.96          103.1          84.26
     1.748              -34.82          28.81          20.83          61.26          3.684         -9.651         -163.7          9.531         -76.62          108.8          88.72
     1.782              -33.81          28.33          22.62          60.55          3.918         -9.868         -164.4          11.79          -91.0          113.7          92.57
     1.815              -32.99          27.94          24.09          59.97          4.109         -10.05         -165.1          13.65         -102.8          117.7          95.72
     1.849              -32.33          27.63          25.26          59.51          4.261         -10.19         -165.6          15.13         -112.2          120.9          98.23
     1.883              -31.82          27.38          26.18          59.15          4.381          -10.3         -166.0          16.28         -119.5          123.4          100.2
     1.916              -31.42          27.19          26.89          58.87          4.474         -10.38         -166.3          17.18         -125.2          125.4          101.7
      1.95              -31.11          27.04          27.45          58.65          4.546         -10.45         -166.5          17.89         -129.7          126.9          102.9
     1.983              -30.86          26.92          27.89          58.47          4.603          -10.5         -166.7          18.44         -133.2          128.1          103.9
